<?xml version="1.0" encoding="UTF-8"?>
<svg version="1.1" xmlns="http://www.w3.org/2000/svg" width="37" height="37">
<path d="M0 0 C12.21 0 24.42 0 37 0 C37 12.21 37 24.42 37 37 C24.79 37 12.58 37 0 37 C0 24.79 0 12.58 0 0 Z " fill="#FCFCFC" transform="translate(0,0)"/>
<path d="M0 0 C12.29332649 0.21268731 12.29332649 0.21268731 16.07421875 3.49609375 C17.05122105 5.82328806 17.75191475 8.07987695 18.3359375 10.53515625 C18.70138672 11.50582031 18.70138672 11.50582031 19.07421875 12.49609375 C20.06421875 12.82609375 21.05421875 13.15609375 22.07421875 13.49609375 C21.08421875 13.99109375 21.08421875 13.99109375 20.07421875 14.49609375 C19.24244251 16.31376506 19.24244251 16.31376506 18.57421875 18.43359375 C17.65019411 21.20064579 17.18284506 22.38746744 15.07421875 24.49609375 C16.06421875 25.15609375 17.05421875 25.81609375 18.07421875 26.49609375 C17.08421875 27.15609375 16.09421875 27.81609375 15.07421875 28.49609375 C14.74421875 28.82609375 14.41421875 29.15609375 14.07421875 29.49609375 C11.07421875 31.49609375 11.07421875 31.49609375 8.07421875 31.49609375 C7.74421875 30.83609375 7.41421875 30.17609375 7.07421875 29.49609375 C6.08421875 29.82609375 5.09421875 30.15609375 4.07421875 30.49609375 C4.07421875 29.83609375 4.07421875 29.17609375 4.07421875 28.49609375 C2.42421875 28.49609375 0.77421875 28.49609375 -0.92578125 28.49609375 C-0.92578125 29.15609375 -0.92578125 29.81609375 -0.92578125 30.49609375 C0.06421875 30.82609375 1.05421875 31.15609375 2.07421875 31.49609375 C0.42421875 31.16609375 -1.22578125 30.83609375 -2.92578125 30.49609375 C-3.01859375 29.44421875 -3.01859375 29.44421875 -3.11328125 28.37109375 C-3.75048171 25.26090005 -3.75048171 25.26090005 -6.48828125 22.80859375 C-9.54507397 19.38853001 -9.52274198 16.28138819 -9.2890625 11.828125 C-8.81646647 8.7943634 -7.82958565 6.89347706 -5.92578125 4.49609375 C-5.52617187 3.80128906 -5.1265625 3.10648437 -4.71484375 2.390625 C-2.92578125 0.49609375 -2.92578125 0.49609375 0 0 Z " fill="#2D5E17" transform="translate(13.92578125,4.50390625)"/>
<path d="M0 0 C5.040088 3.93126864 8.11765885 7.54901557 9.0625 14 C9.31366845 17.86006249 8.68439232 20.86007057 7.125 24.4375 C6.63 23.4475 6.63 23.4475 6.125 22.4375 C5.135 22.1075 4.145 21.7775 3.125 21.4375 C3.7025 20.591875 4.28 19.74625 4.875 18.875 C6.45083196 15.69902667 6.45083196 15.69902667 5.43359375 13.5859375 C4.37045217 11.84490425 3.24914754 10.13978056 2.125 8.4375 C2.125 7.4475 2.125 6.4575 2.125 5.4375 C1.50625 5.293125 0.8875 5.14875 0.25 5 C-1.875 4.4375 -1.875 4.4375 -3.875 3.4375 C-11.94391156 2.56979329 -11.94391156 2.56979329 -19.0625 5.75 C-22.36552282 10.64758555 -22.72865093 15.67760265 -21.875 21.4375 C-20.44103051 23.7367121 -18.73238248 25.43724194 -16.875 27.4375 C-17.0625 29.8125 -17.0625 29.8125 -17.875 31.4375 C-21.67989745 29.94271886 -23.53690835 27.74307786 -25.875 24.4375 C-27.63016778 19.17199666 -27.94715936 13.34146527 -26.00390625 8.078125 C-20.61467955 -1.32209993 -10.06995294 -5.07895006 0 0 Z " fill="#B9BAB9" transform="translate(27.875,2.5625)"/>
<path d="M0 0 C1.4384798 0.06423833 2.87666999 0.14163547 4.3125 0.25 C2.8275 2.725 2.8275 2.725 1.3125 5.25 C5.7675 4.755 5.7675 4.755 10.3125 4.25 C11.3125 8.25 11.3125 8.25 10.31640625 10.171875 C9.84074219 10.77515625 9.36507813 11.3784375 8.875 12 C8.40191406 12.61359375 7.92882813 13.2271875 7.44140625 13.859375 C7.06886719 14.31828125 6.69632813 14.7771875 6.3125 15.25 C6.6425 15.91 6.9725 16.57 7.3125 17.25 C7.53872081 18.95363822 7.72138473 20.66328701 7.875 22.375 C7.95878906 23.28507812 8.04257812 24.19515625 8.12890625 25.1328125 C8.18949219 25.83148437 8.25007813 26.53015625 8.3125 27.25 C5.3425 27.25 2.3725 27.25 -0.6875 27.25 C-0.0275 26.92 0.6325 26.59 1.3125 26.25 C1.28572432 18.96701587 0.48057445 14.34375015 -4.41015625 8.80859375 C-5.6875 7.25 -5.6875 7.25 -5.6875 5.25 C-6.3475 4.92 -7.0075 4.59 -7.6875 4.25 C-5.84004374 0.30875998 -4.09551026 -0.02575793 0 0 Z " fill="#275E1C" transform="translate(15.6875,4.75)"/>
<path d="M0 0 C2.09765625 0.7578125 2.09765625 0.7578125 4 2 C4.94140625 4.12890625 4.94140625 4.12890625 5.5625 6.5625 C6.12318715 8.96205587 6.12318715 8.96205587 7 11 C7.99 11.33 8.98 11.66 10 12 C9.01 12.495 9.01 12.495 8 13 C7.27784871 14.75501036 7.27784871 14.75501036 6.6875 16.8125 C5.26874831 20.77644946 3.80240839 22.91772874 0 25 C-2.8125 24.75 -2.8125 24.75 -5 24 C-5.68764565 16.40533577 -4.81044266 12.89279226 0 7 C0 6.01 0 5.02 0 4 C-2.97 4 -5.94 4 -9 4 C-8.67 2.68 -8.34 1.36 -8 0 C-5.08585452 -1.45707274 -3.13079879 -0.68877573 0 0 Z " fill="#296623" transform="translate(26,6)"/>
<path d="M0 0 C0.33 0 0.66 0 1 0 C1 5.28 1 10.56 1 16 C-5.93 16 -12.86 16 -20 16 C-20 15.34 -20 14.68 -20 14 C-20.99 14 -21.98 14 -23 14 C-23 13.34 -23 12.68 -23 12 C-21.35 12 -19.7 12 -18 12 C-18 12.66 -18 13.32 -18 14 C-17.34 14 -16.68 14 -16 14 C-15.67 13.34 -15.34 12.68 -15 12 C-14.67 12.99 -14.34 13.98 -14 15 C-12.35 14.34 -10.7 13.68 -9 13 C-9 12.01 -9 11.02 -9 10 C-7.68 10 -6.36 10 -5 10 C-5.99 9.34 -6.98 8.68 -8 8 C-6.75 6 -6.75 6 -5 4 C-3.68 4 -2.36 4 -1 4 C-0.67 2.68 -0.34 1.36 0 0 Z " fill="#FCFCFC" transform="translate(36,21)"/>
<path d="M0 0 C1.34648017 0.63969787 2.68301246 1.30159751 4 2 C3.88141732 6.94813173 3.72224474 10.0925643 0.5625 14.0625 C-2 16 -2 16 -4 16 C-4 18.64 -4 21.28 -4 24 C-4.33 24 -4.66 24 -5 24 C-5.68764565 16.40533577 -4.81044266 12.89279226 0 7 C0 6.01 0 5.02 0 4 C-2.97 4 -5.94 4 -9 4 C-8.67 2.68 -8.34 1.36 -8 0 C-5.08585452 -1.45707274 -3.13079879 -0.68877573 0 0 Z " fill="#3D4820" transform="translate(26,6)"/>
<path d="M0 0 C-2.31146129 2.31146129 -4.25727922 4.17151948 -7 6 C-7.99 6 -8.98 6 -10 6 C-10.33 5.34 -10.66 4.68 -11 4 C-11.99 4.33 -12.98 4.66 -14 5 C-14 4.34 -14 3.68 -14 3 C-15.65 3 -17.3 3 -19 3 C-19 3.66 -19 4.32 -19 5 C-18.01 5.33 -17.02 5.66 -16 6 C-17.65 5.67 -19.3 5.34 -21 5 C-20.34 3.68 -19.68 2.36 -19 1 C-18.22914062 1.01160156 -17.45828125 1.02320312 -16.6640625 1.03515625 C-15.15972656 1.04869141 -15.15972656 1.04869141 -13.625 1.0625 C-12.12839844 1.07990234 -12.12839844 1.07990234 -10.6015625 1.09765625 C-6.91272189 0.95918626 -3.88176219 -0.08438613 0 0 Z " fill="#989C98" transform="translate(32,30)"/>
<path d="M0 0 C1.32 0 2.64 0 4 0 C4.91457003 5.56157448 5.32086397 9.675665 3 15 C2.67 14.34 2.34 13.68 2 13 C1.01 12.67 0.02 12.34 -1 12 C-0.01 10.02 0.98 8.04 2 6 C1.34 5.01 0.68 4.02 0 3 C0 2.01 0 1.02 0 0 Z " fill="#CBCACB" transform="translate(32,12)"/>
<path d="M0 0 C0.33663062 3.70293685 0.47736015 5.39534381 -1.875 8.375 C-4 10 -4 10 -6 10 C-6 12.64 -6 15.28 -6 18 C-6.33 18 -6.66 18 -7 18 C-7.639903 12.21717289 -7.65112385 8.15412198 -4.0625 3.375 C-1.24110672 0 -1.24110672 0 0 0 Z " fill="#E28113" transform="translate(28,12)"/>
<path d="M0 0 C6.85533648 6.61894556 6.85533648 6.61894556 7.29296875 10.796875 C7.25816406 11.77140625 7.22335938 12.7459375 7.1875 13.75 C7.14689453 15.22726563 7.14689453 15.22726563 7.10546875 16.734375 C7.07066406 17.48203125 7.03585938 18.2296875 7 19 C6.67 19 6.34 19 6 19 C5.9071875 17.1746875 5.9071875 17.1746875 5.8125 15.3125 C5.28400826 10.75626063 3.25509796 9.17163391 0 6 C-0.3125 2.6875 -0.3125 2.6875 0 0 Z " fill="#E98513" transform="translate(9,11)"/>
<path d="M0 0 C-4.625 4.875 -4.625 4.875 -8 6 C-9.65 4.35 -11.3 2.7 -13 1 C-8.62426048 0.40667939 -4.42471556 -0.13827236 0 0 Z " fill="#0274BD" transform="translate(26,9)"/>
<path d="M0 0 C-0.33 0.99 -0.66 1.98 -1 3 C-1.66 3 -2.32 3 -3 3 C-4.2375 3.7734375 -4.2375 3.7734375 -5.5 4.5625 C-6.7375 5.2740625 -6.7375 5.2740625 -8 6 C-8.66 5.67 -9.32 5.34 -10 5 C-10 4.01 -10 3.02 -10 2 C-6.5980513 -0.09350689 -3.94727588 -0.17942163 0 0 Z " fill="#C9C9C9" transform="translate(19,1)"/>
<path d="M0 0 C1.98 0.99 1.98 0.99 4 2 C4.33 1.34 4.66 0.68 5 0 C6.5625 1.25 6.5625 1.25 8 3 C7.6875 5.1875 7.6875 5.1875 7 7 C4.13302508 5.71480435 2.02392288 4.42870746 0 2 C0 1.34 0 0.68 0 0 Z " fill="#AAABA9" transform="translate(3,27)"/>
<path d="M0 0 C1.65 0 3.3 0 5 0 C5 0.66 5 1.32 5 2 C5.66 2 6.32 2 7 2 C7.33 1.34 7.66 0.68 8 0 C8 1.32 8 2.64 8 4 C6.35 4 4.7 4 3 4 C3 3.34 3 2.68 3 2 C2.01 2 1.02 2 0 2 C0 1.34 0 0.68 0 0 Z " fill="#CBCBCB" transform="translate(13,33)"/>
<path d="M0 0 C0.99 0 1.98 0 3 0 C2.67 1.65 2.34 3.3 2 5 C0.35 5 -1.3 5 -3 5 C-1.6875 2.5 -1.6875 2.5 0 0 Z " fill="#E5E5E5" transform="translate(31,25)"/>
<path d="M0 0 C0.99 0 1.98 0 3 0 C2.67 2.31 2.34 4.62 2 7 C1.67 6.34 1.34 5.68 1 5 C0.01 4.67 -0.98 4.34 -2 4 C-1.34 2.68 -0.68 1.36 0 0 Z " fill="#B2B2B2" transform="translate(33,20)"/>
<path d="M0 0 C1.37562854 1.28965176 2.70766393 2.62689293 4 4 C4 4.66 4 5.32 4 6 C2.35 5.67 0.7 5.34 -1 5 C-0.67 3.35 -0.34 1.7 0 0 Z " fill="#AEADAD" transform="translate(31,6)"/>
<path d="M0 0 C0.99 0 1.98 0 3 0 C2.67 2.97 2.34 5.94 2 9 C1.67 9 1.34 9 1 9 C0.63877119 7.68942607 0.28619689 6.37646376 -0.0625 5.0625 C-0.35833984 3.96615234 -0.35833984 3.96615234 -0.66015625 2.84765625 C-0.77230469 2.23792969 -0.88445313 1.62820313 -1 1 C-0.67 0.67 -0.34 0.34 0 0 Z " fill="#5B5B24" transform="translate(27,8)"/>
</svg>
